HIERARCHY
ROOT pelvis
{
  OFFSET 0 100 0
  CHANNELS 6 Xposition Yposition Zposition Zrotation Xrotation Yrotation
  JOINT pelvis_right_femur
  {
    OFFSET -10.78128 -3.44521 -0.5502486
    CHANNELS 3 Zrotation Xrotation Yrotation
    JOINT right_femur_tibia
    {
      OFFSET -0.8047443 -44.0398 -0.1307829
      CHANNELS 3 Zrotation Xrotation Yrotation
      JOINT right_tibia_foot
      {
        OFFSET 3.006224 -47.83518 -5
        CHANNELS 3 Zrotation Xrotation Yrotation
        End Site
        {
          OFFSET 0 -5 15
        }
      }
    }
  }
  JOINT pelvis_left_femur
  {
    OFFSET 10.78128 -3.44521 -0.5502486
    CHANNELS 3 Zrotation Xrotation Yrotation
    JOINT left_femur_tibia
    {
      OFFSET 0.8047443 -44.0398 -0.1307829
      CHANNELS 3 Zrotation Xrotation Yrotation
      JOINT left_tibia_foot
      {
        OFFSET -4.370144 -48.10324 -4.275266
        CHANNELS 3 Zrotation Xrotation Yrotation
        End Site
        {
          OFFSET 0 -5 15
        }
      }
    }
  }
  JOINT pelvis_spine1
  {
    OFFSET 0 6.468898 -3.129235
    CHANNELS 3 Zrotation Xrotation Yrotation
    JOINT spine1
    {
      OFFSET 0 23.15396 4.99043
      CHANNELS 3 Zrotation Xrotation Yrotation
      JOINT spine2
      {
        OFFSET 0 20.79997 -5.064912
        CHANNELS 3 Zrotation Xrotation Yrotation
        JOINT neck
        {
          OFFSET 0 14.38658 9.616178
          CHANNELS 3 Zrotation Xrotation Yrotation
          End Site
          {
            OFFSET 0 20 0
          }
        }
      }
      JOINT right_manubrium
      {
        OFFSET -5.722621 16.35077 3.967754
        CHANNELS 3 Zrotation Xrotation Yrotation
        JOINT right_clavicle
        {
          OFFSET -13.16364 1.694482 -4.693211
          CHANNELS 3 Zrotation Xrotation Yrotation
          JOINT right_humerus
          {
            OFFSET -28.5034 -0.3100689 -2.792744
            CHANNELS 3 Zrotation Xrotation Yrotation
            JOINT right_radius
            {
              OFFSET -25.15693 0.02248979 -1.271978
              CHANNELS 3 Zrotation Xrotation Yrotation
              End Site
              {
                OFFSET -15 0 0
              }
            }
          }
        }
      }
      JOINT left_manubrium
      {
        OFFSET 5.722621 16.35077 3.967754
        CHANNELS 3 Zrotation Xrotation Yrotation
        JOINT left_clavicle
        {
          OFFSET 13.16364 1.694482 -4.693211
          CHANNELS 3 Zrotation Xrotation Yrotation
          JOINT left_humerus
          {
            OFFSET 29.39168 -1.063119 -2.237045
            CHANNELS 3 Zrotation Xrotation Yrotation
            JOINT left_radius
            {
              OFFSET 24.59957 -0.9528479 0.9047498
              CHANNELS 3 Zrotation Xrotation Yrotation
              End Site
              {
                OFFSET 15 -0 -0
              }
            }
          }
        }
      }
    }
  }
}
MOTION
Frames: 15
Frame Time: 0.0416666666667
0 103.5113 0 1.631259 0.3873612 0.1477331 3.559961 -14.4512 11.17804 -0 36.62004 -0 -5.649036 -18.85371 -4.374597 -7.397031 7.304947 -21.05112 -0 4.531915 -0 19.91398 -9.737119 27.31201 -2.54726 -2.615477 5.206466 2.337824 9.934058 -7.582938 1.677849 21.06207 6.015337 2.816668 -25.41576 9.207248 5.156414 -20.19828 11.32974 85.59395 35.42048 -17.38444 -0 0 17.00713 -8.858335 8.320199 4.766845 6.505553 -20.16809 -0.3407604 -92.43301 22.2039 21.34522 0 0 -13.6039 12.46324 15.54609 -1.29706
0.3727064 103.488 1.462025 1.380456 1.595265 0.3212858 4.31259 -17.5199 12.54591 -0 36.36152 -0 -4.903798 -18.50366 -4.827238 -7.581345 7.694171 -21.11901 -0 5.442445 -0 20.20029 -10.83104 27.65905 -2.311165 -2.570387 4.961933 2.55184 9.874333 -7.857915 1.633909 20.76099 6.398217 3.025826 -25.98537 9.515615 5.139382 -19.77537 11.33794 86.34728 35.22245 -18.62925 -0 0 16.06578 -8.761519 8.614395 4.46452 6.76973 -20.48538 -0.3456016 -92.24693 21.81298 20.74738 0 0 -14.43049 12.87909 15.40813 -1.806955
0.6985951 103.304 3.146307 1.155149 0.2496163 0.4722322 4.336163 -18.49946 9.977394 -0 34.84964 -0 -5.573799 -16.04164 -4.095486 -7.226616 9.902935 -21.12413 -0 6.542868 -0 15.98261 -13.75679 26.83805 -2.178557 -2.359882 4.854291 2.663999 9.805987 -7.89069 1.54807 20.65481 6.475359 3.196166 -25.88309 9.230341 5.30298 -19.33589 11.42213 86.08146 34.96719 -18.68637 -0 0 15.48702 -8.946156 8.836185 4.890127 6.678234 -20.604 -0.5063104 -92.08307 22.18761 20.37283 0 0 -15.2133 11.81592 15.0688 -0.4626207
0.998707 103.0953 5.044374 0.9262716 0.1931428 0.5931372 4.662548 -20.37707 8.929846 -0 32.996 -0 -5.798976 -14.32836 -3.761626 -7.066238 10.83362 -20.77471 -0 7.581357 -0 14.08408 -15.55821 26.05912 -2.069955 -2.255873 4.726614 2.763038 9.733016 -7.972855 1.498301 20.5357 6.617934 3.342215 -25.95208 9.176568 5.4143 -19.00483 11.44649 86.12978 34.83389 -19.05548 -0 0 14.99717 -8.960018 9.002359 4.988874 6.710527 -20.72808 -0.5989117 -91.9894 22.40336 20.06658 0 0 -15.83846 11.3069 14.90337 0.2100681
1.27556 102.8423 7.146091 0.6327377 0.5200285 0.7264524 5.082336 -22.60843 8.361609 -0 31.19747 -0 -5.790981 -12.84456 -3.580961 -6.897507 11.58268 -20.45569 -0 8.28241 -0 12.14756 -17.38015 25.20881 -1.980835 -2.163218 4.58704 2.84816 9.631102 -8.044951 1.452725 20.43432 6.765898 3.498533 -25.98653 9.127186 5.571208 -18.66629 11.45022 86.14936 34.75113 -19.43844 -0 0 14.55626 -8.906866 9.14649 5.051848 6.746574 -20.82949 -0.7095284 -91.95062 22.80182 19.81579 0 0 -16.49085 10.6591 14.79059 1.088565
1.53356 102.5404 9.498524 0.3407506 1.017615 0.900457 5.54906 -24.79185 7.89597 -0 29.04267 -0 -5.883993 -11.34826 -3.402119 -6.726333 12.05093 -19.92381 -0 9.19887 -0 10.76859 -18.7413 24.21931 -1.896884 -2.083194 4.451055 2.928003 9.531509 -8.119356 1.41127 20.33749 6.910749 3.642807 -26.03128 9.097086 5.708962 -18.35771 11.44774 86.20327 34.68386 -19.83155 -0 0 14.14337 -8.851452 9.283156 5.088868 6.788774 -20.92722 -0.8103975 -91.91563 23.1698 19.58476 0 0 -17.10243 10.07962 14.69382 1.878208
1.77329 102.1913 12.15363 0.02108909 1.579074 1.131367 6.035232 -26.88447 7.443461 -0 26.69636 -0 -6.101759 -9.787017 -3.204826 -6.508753 12.43115 -19.28118 -0 10.33357 -0 9.451649 -19.8215 23.03029 -1.814539 -2.001694 4.311503 3.005354 9.425081 -8.193543 1.36827 20.24527 7.054835 3.786576 -26.06508 9.061674 5.845801 -18.05069 11.44164 86.26119 34.62609 -20.22779 -0 0 13.73386 -8.802413 9.42256 5.130309 6.82675 -21.0221 -0.9170742 -91.88269 23.57103 19.36198 0 0 -17.72522 9.459067 14.59637 2.721939
1.994266 101.8063 15.16882 -0.31076 2.060313 1.42734 6.480461 -28.60264 6.889465 -0 24.3017 -0 -6.555385 -8.173495 -2.944016 -6.228709 12.76296 -18.5431 -0 11.89573 -0 8.173813 -20.43723 21.62238 -1.73466 -1.912745 4.180538 3.077766 9.32522 -8.262608 1.321959 20.16212 7.183536 3.919054 -26.07806 9.00523 5.962858 -17.76039 11.43982 86.31177 34.57044 -20.58017 -0 0 13.33504 -8.801388 9.566593 5.206522 6.848431 -21.1126 -1.023544 -91.82958 23.94458 19.13897 0 0 -18.32245 8.832512 14.47458 3.562243
2.195183 101.4156 18.59525 -0.6668934 2.389258 1.78645 6.864869 -29.79449 6.228986 -0 22.07178 -0 -7.260748 -6.593104 -2.620865 -5.862717 13.07867 -17.76947 -0 14.02012 -0 6.731814 -20.52541 19.96602 -1.659887 -1.811121 4.061622 3.142246 9.233991 -8.322076 1.270541 20.09351 7.291254 4.038548 -26.05615 8.915654 6.059694 -17.48717 11.44444 86.34089 34.5212 -20.8656 -0 0 12.95025 -8.866796 9.716304 5.335065 6.84583 -21.195 -1.13212 -91.75012 24.29279 18.91403 0 0 -18.88733 8.180858 14.31878 4.421246
2.37633 101.0702 22.46549 -1.042319 2.486061 2.191415 7.168911 -30.23678 5.466953 -0 20.22325 -0 -8.211246 -5.196071 -2.244573 -5.40468 13.32098 -16.99777 -0 16.89452 -0 5.045504 -19.95251 18.07883 -1.594747 -1.693466 3.963571 3.193754 9.159342 -8.365854 1.213346 20.04648 7.368366 4.138503 -25.98622 8.782792 6.128856 -17.24135 11.4589 86.33549 34.48264 -21.04865 -0 0 12.59244 -9.025415 9.870391 5.534092 6.8104 -21.26405 -1.240356 -91.63402 24.58985 18.68683 0 0 -19.39066 7.517863 14.11804 5.276126
2.542314 100.8436 26.78107 -1.424186 2.319674 2.607101 7.397269 -29.76176 4.657256 -0 18.90225 -0 -9.326524 -4.170514 -1.853526 -4.86947 13.33072 -16.24036 -0 20.68696 -0 3.10645 -18.6338 16.03016 -1.545179 -1.558223 3.894447 3.225738 9.107042 -8.386854 1.150583 20.02915 7.4075 4.213933 -25.85418 8.600153 6.167247 -17.03281 11.48459 86.28164 34.46175 -21.09817 -0 0 12.27952 -9.297304 10.02617 5.8156 6.735002 -21.31235 -1.347515 -91.47841 24.82609 18.4643 0 0 -19.80548 6.847933 13.86823 6.119517
2.704454 100.8203 31.49962 -1.771555 1.893544 2.980361 7.549954 -28.24855 3.85521 -0 18.10431 -0 -10.4715 -3.687474 -1.498571 -4.306981 12.83368 -15.46306 -0 25.50847 -0 1.070748 -16.56073 13.9678 -1.517966 -1.405844 3.864434 3.230215 9.083991 -8.376555 1.083668 20.04984 7.40152 4.259315 -25.64684 8.364973 6.17172 -16.87519 11.52243 86.1638 34.46356 -20.98002 -0 0 12.03658 -9.701293 10.17966 6.188188 6.613419 -21.33067 -1.452006 -91.28446 24.98952 18.25971 0 0 -20.09846 6.182911 13.56842 6.935614
2.880025 101.0722 36.52997 -2.013975 1.248499 3.249503 7.60647 -25.68552 3.094762 -0 17.61796 -0 -11.48907 -3.817884 -1.223942 -3.794368 11.49837 -14.5945 -0 31.30482 -0 -0.7637329 -13.88415 12.0967 -1.519834 -1.238868 3.884364 3.198336 9.095773 -8.325283 1.015229 20.11602 7.345506 4.270409 -25.35291 8.079275 6.1414 -16.78354 11.57221 85.96437 34.49002 -20.66129 -0 0 11.89451 -10.2508 10.32633 6.655225 6.441169 -21.30807 -1.552642 -91.06086 25.07579 18.09511 0 0 -20.23696 5.532239 13.22264 7.714095
3.086265 101.6253 41.74115 -2.062001 0.4305931 3.362181 7.52064 -22.19168 2.364887 -0 17.0643 -0 -12.27446 -4.457344 -1.035924 -3.401591 9.066274 -13.56455 -0 37.72901 -0 -2.033428 -10.94123 10.63701 -1.556017 -1.061838 3.965239 3.121619 9.146079 -8.223067 0.9490062 20.23217 7.237679 4.244877 -24.96579 7.75053 6.077245 -16.77334 11.63299 85.66439 34.53734 -20.11229 -0 0 11.8873 -10.95278 10.46198 7.214761 6.216605 -21.23304 -1.647933 -90.82304 25.0846 17.99975 0 0 -20.19218 4.905532 12.83858 8.446308
3.330701 102.433 46.9877 -1.848033 -0.5392172 3.296362 7.257559 -18.01437 1.630021 -0 16.06498 -0 -12.83717 -5.324511 -0.8947738 -3.135445 5.513638 -12.35569 -0 44.0494 -0 -2.456033 -8.186748 9.774888 -1.628838 -0.8809144 4.116598 2.993462 9.235013 -8.060982 0.8894299 20.3978 7.080613 4.183306 -24.48601 7.391551 5.982431 -16.85811 11.70305 85.24532 34.59474 -19.31103 -0 0 12.04776 -11.8054 10.58359 7.859237 5.9421 -21.09495 -1.735925 -90.59238 25.02045 18.00735 0 0 -19.9453 4.310486 12.42654 9.127675
